G04 ================== begin FILE IDENTIFICATION RECORD ==================*
G04 Layout Name:  E:/FACULTATE/ANUL 3/P1/ALLEGRO/LAYOUT_P1_ultimul.brd*
G04 Film Name:    FAB*
G04 File Format:  Gerber RS274X*
G04 File Origin:  Cadence Allegro 16.6-2015-S059*
G04 Origin Date:  Tue Jan 16 17:33:14 2024*
G04 *
G04 Layer:  MANUFACTURING/NCLEGEND-1-2*
G04 Layer:  MANUFACTURING/NCDRILL_LEGEND*
G04 Layer:  MANUFACTURING/NCDRILL_FIGURE*
G04 Layer:  DRAWING FORMAT/DRAWING_ORIGIN*
G04 Layer:  BOARD GEOMETRY/OUTLINE*
G04 Layer:  BOARD GEOMETRY/DIMENSION*
G04 *
G04 Offset:    (0.00 0.00)*
G04 Mirror:    No*
G04 Mode:      Positive*
G04 Rotation:  0*
G04 FullContactRelief:  No*
G04 UndefLineWidth:     10.00*
G04 ================== end FILE IDENTIFICATION RECORD ====================*
%FSLAX23Y23*MOIN*%
%IR0*IPPOS*OFA0.00000B0.00000*MIA0B0*SFA1.00000B1.00000*%
%AMMACRO10*
1,1,.01,.025,0.0*
20,1,.01,.025,0.0,-.025,0.0,0.0*
1,1,.01,-.025,0.0*
1,1,.01,0.0,.025*
20,1,.01,0.0,.025,0.0,-.025,0.0*
1,1,.01,0.0,-.025*
%
%ADD10MACRO10*%
%AMMACRO11*
1,1,.01,.025,0.0*
20,1,.01,.025,0.0,.02462,-.004341,0.0*
1,1,.01,.02462,-.004341*
20,1,.01,.02462,-.004341,.023492,-.008551,0.0*
1,1,.01,.023492,-.008551*
20,1,.01,.023492,-.008551,.021651,-.0125,0.0*
1,1,.01,.021651,-.0125*
20,1,.01,.021651,-.0125,.019151,-.01607,0.0*
1,1,.01,.019151,-.01607*
20,1,.01,.019151,-.01607,.01607,-.019151,0.0*
1,1,.01,.01607,-.019151*
20,1,.01,.01607,-.019151,.0125,-.021651,0.0*
1,1,.01,.0125,-.021651*
20,1,.01,.0125,-.021651,.008551,-.023492,0.0*
1,1,.01,.008551,-.023492*
20,1,.01,.008551,-.023492,.004341,-.02462,0.0*
1,1,.01,.004341,-.02462*
20,1,.01,.004341,-.02462,0.0,-.025,0.0*
1,1,.01,0.0,-.025*
20,1,.01,0.0,-.025,-.004341,-.02462,0.0*
1,1,.01,-.004341,-.02462*
20,1,.01,-.004341,-.02462,-.008551,-.023492,0.0*
1,1,.01,-.008551,-.023492*
20,1,.01,-.008551,-.023492,-.0125,-.021651,0.0*
1,1,.01,-.0125,-.021651*
20,1,.01,-.0125,-.021651,-.01607,-.019151,0.0*
1,1,.01,-.01607,-.019151*
20,1,.01,-.01607,-.019151,-.019151,-.01607,0.0*
1,1,.01,-.019151,-.01607*
20,1,.01,-.019151,-.01607,-.021651,-.0125,0.0*
1,1,.01,-.021651,-.0125*
20,1,.01,-.021651,-.0125,-.023492,-.008551,0.0*
1,1,.01,-.023492,-.008551*
20,1,.01,-.023492,-.008551,-.02462,-.004341,0.0*
1,1,.01,-.02462,-.004341*
20,1,.01,-.02462,-.004341,-.025,0.0,0.0*
1,1,.01,-.025,0.0*
20,1,.01,-.025,0.0,-.02462,.004341,0.0*
1,1,.01,-.02462,.004341*
20,1,.01,-.02462,.004341,-.023492,.008551,0.0*
1,1,.01,-.023492,.008551*
20,1,.01,-.023492,.008551,-.021651,.0125,0.0*
1,1,.01,-.021651,.0125*
20,1,.01,-.021651,.0125,-.019151,.01607,0.0*
1,1,.01,-.019151,.01607*
20,1,.01,-.019151,.01607,-.01607,.019151,0.0*
1,1,.01,-.01607,.019151*
20,1,.01,-.01607,.019151,-.0125,.021651,0.0*
1,1,.01,-.0125,.021651*
20,1,.01,-.0125,.021651,-.008551,.023492,0.0*
1,1,.01,-.008551,.023492*
20,1,.01,-.008551,.023492,-.004341,.02462,0.0*
1,1,.01,-.004341,.02462*
20,1,.01,-.004341,.02462,0.0,.025,0.0*
1,1,.01,0.0,.025*
20,1,.01,0.0,.025,.004341,.02462,0.0*
1,1,.01,.004341,.02462*
20,1,.01,.004341,.02462,.008551,.023492,0.0*
1,1,.01,.008551,.023492*
20,1,.01,.008551,.023492,.0125,.021651,0.0*
1,1,.01,.0125,.021651*
20,1,.01,.0125,.021651,.01607,.019151,0.0*
1,1,.01,.01607,.019151*
20,1,.01,.01607,.019151,.019151,.01607,0.0*
1,1,.01,.019151,.01607*
20,1,.01,.019151,.01607,.021651,.0125,0.0*
1,1,.01,.021651,.0125*
20,1,.01,.021651,.0125,.023492,.008551,0.0*
1,1,.01,.023492,.008551*
20,1,.01,.023492,.008551,.02462,.004341,0.0*
1,1,.01,.02462,.004341*
20,1,.01,.02462,.004341,.025,0.0,0.0*
1,1,.01,.025,0.0*
1,1,.01,.0125,0.0*
20,1,.01,.0125,0.0,-.0125,0.0,0.0*
1,1,.01,-.0125,0.0*
1,1,.01,0.0,.0125*
20,1,.01,0.0,.0125,0.0,-.0125,0.0*
1,1,.01,0.0,-.0125*
%
%ADD11MACRO11*%
%ADD12C,.01*%
G75*
%LPD*%
G75*
G54D10*
X0Y0D03*
G54D11*
X475Y300D03*
X500Y650D03*
X363Y787D03*
X575Y100D03*
X800Y175D03*
X700Y300D03*
X537Y787D03*
X750Y1000D03*
X800Y1100D03*
X650Y1300D03*
X550Y1125D03*
X950Y100D03*
X1065Y215D03*
X1200Y300D03*
X1211Y161D03*
X1261Y989D03*
Y786D03*
X1525Y300D03*
X2350Y525D03*
G54D12*
G01X0Y0D02*
Y1600D01*
X1600D01*
Y0D01*
X0D01*
G01X2010Y712D02*
Y838D01*
X2069D01*
G01X2047Y777D02*
X2010D01*
G01X2145Y838D02*
X2182D01*
G01X2164D02*
Y712D01*
G01X2145D02*
X2182D01*
G01X2297Y775D02*
X2328D01*
Y738D01*
X2318Y725D01*
X2308Y717D01*
X2292Y712D01*
X2277Y717D01*
X2266Y725D01*
X2256Y738D01*
X2250Y752D01*
X2247Y769D01*
Y783D01*
X2250Y796D01*
X2256Y810D01*
X2266Y823D01*
X2275Y831D01*
X2288Y838D01*
X2298D01*
X2311Y833D01*
X2320Y825D01*
G01X2377Y838D02*
Y748D01*
X2384Y729D01*
X2396Y717D01*
X2412Y712D01*
X2427Y717D01*
X2439Y729D01*
X2446Y748D01*
Y838D01*
G01X2504Y712D02*
Y838D01*
X2543D01*
X2556Y831D01*
X2563Y823D01*
X2566Y806D01*
X2563Y790D01*
X2554Y779D01*
X2543Y773D01*
X2504D01*
G01X2543D02*
X2566Y712D01*
G01X2690D02*
X2628D01*
Y838D01*
X2690D01*
G01X2666Y777D02*
X2628D01*
G01X1900Y400D02*
Y1400D01*
X6736D01*
Y400D01*
X1900D01*
G01Y650D02*
X6736D01*
G01X1900Y900D02*
X6736D01*
G01X1900Y1150D02*
X6736D01*
G01X2799Y900D02*
Y400D01*
G01X2734Y1213D02*
Y1338D01*
X2765D01*
X2777Y1331D01*
X2787Y1323D01*
X2794Y1310D01*
X2801Y1296D01*
X2802Y1275D01*
X2801Y1254D01*
X2794Y1240D01*
X2787Y1227D01*
X2777Y1219D01*
X2765Y1213D01*
X2734D01*
G01X2861D02*
Y1338D01*
X2900D01*
X2912Y1331D01*
X2920Y1323D01*
X2923Y1306D01*
X2920Y1290D01*
X2911Y1279D01*
X2900Y1273D01*
X2861D01*
G01X2900D02*
X2923Y1213D01*
G01X2997Y1338D02*
X3035D01*
G01X3016D02*
Y1213D01*
G01X2997D02*
X3035D01*
G01X3109Y1338D02*
Y1213D01*
X3171D01*
G01X3233Y1338D02*
Y1213D01*
X3295D01*
G01X3546Y1327D02*
X3537Y1333D01*
X3526Y1338D01*
X3514D01*
X3500Y1331D01*
X3489Y1321D01*
X3481Y1308D01*
X3475Y1288D01*
X3473Y1269D01*
X3476Y1250D01*
X3481Y1238D01*
X3490Y1225D01*
X3501Y1217D01*
X3512Y1213D01*
X3523D01*
X3534Y1217D01*
X3543Y1223D01*
X3551Y1231D01*
G01X3603Y1213D02*
Y1338D01*
G01X3669D02*
Y1213D01*
G01Y1275D02*
X3603D01*
G01X3721Y1213D02*
X3760Y1338D01*
X3799Y1213D01*
G01X3785Y1256D02*
X3735D01*
G01X3853Y1213D02*
Y1338D01*
X3892D01*
X3904Y1331D01*
X3912Y1323D01*
X3915Y1306D01*
X3912Y1290D01*
X3903Y1279D01*
X3892Y1273D01*
X3853D01*
G01X3892D02*
X3915Y1213D01*
G01X4008Y1338D02*
Y1213D01*
G01X3972Y1338D02*
X4044D01*
G01X4132Y1208D02*
X4129Y1210D01*
Y1215D01*
X4132Y1217D01*
X4135Y1215D01*
Y1210D01*
X4132Y1208D01*
G01Y1265D02*
X4129Y1267D01*
Y1271D01*
X4132Y1273D01*
X4135Y1271D01*
Y1267D01*
X4132Y1265D01*
G01X4380Y1338D02*
Y1213D01*
G01X4344Y1338D02*
X4416D01*
G01X4504Y1213D02*
X4492Y1215D01*
X4481Y1223D01*
X4471Y1235D01*
X4465Y1250D01*
X4462Y1267D01*
Y1283D01*
X4465Y1300D01*
X4471Y1315D01*
X4481Y1327D01*
X4492Y1335D01*
X4504Y1338D01*
X4516Y1335D01*
X4527Y1327D01*
X4537Y1315D01*
X4543Y1300D01*
X4546Y1283D01*
Y1267D01*
X4543Y1250D01*
X4537Y1235D01*
X4527Y1223D01*
X4516Y1215D01*
X4504Y1213D01*
G01X4597D02*
Y1338D01*
X4634D01*
X4647Y1331D01*
X4656Y1317D01*
X4659Y1300D01*
X4656Y1283D01*
X4648Y1271D01*
X4634Y1265D01*
X4597D01*
G01X4876Y1338D02*
Y1213D01*
G01X4854Y1296D02*
X4898D01*
G01X5000Y1213D02*
X4991Y1215D01*
X4981Y1223D01*
X4975Y1238D01*
X4972Y1254D01*
X4975Y1271D01*
X4981Y1285D01*
X4991Y1294D01*
X5000Y1296D01*
X5009Y1294D01*
X5019Y1285D01*
X5025Y1271D01*
X5026Y1254D01*
X5025Y1238D01*
X5019Y1223D01*
X5009Y1215D01*
X5000Y1213D01*
G01X5260Y1279D02*
X5267Y1285D01*
X5271Y1296D01*
X5274Y1310D01*
X5271Y1323D01*
X5265Y1331D01*
X5254Y1338D01*
X5212D01*
Y1213D01*
X5264D01*
X5274Y1221D01*
X5281Y1233D01*
X5284Y1248D01*
X5281Y1262D01*
X5271Y1275D01*
X5260Y1279D01*
X5212D01*
G01X5372Y1213D02*
X5360Y1215D01*
X5349Y1223D01*
X5339Y1235D01*
X5333Y1250D01*
X5330Y1267D01*
Y1283D01*
X5333Y1300D01*
X5339Y1315D01*
X5349Y1327D01*
X5360Y1335D01*
X5372Y1338D01*
X5384Y1335D01*
X5395Y1327D01*
X5405Y1315D01*
X5411Y1300D01*
X5414Y1283D01*
Y1267D01*
X5411Y1250D01*
X5405Y1235D01*
X5395Y1223D01*
X5384Y1215D01*
X5372Y1213D01*
G01X5496Y1338D02*
Y1213D01*
G01X5460Y1338D02*
X5532D01*
G01X5620D02*
Y1213D01*
G01X5584Y1338D02*
X5656D01*
G01X5744Y1213D02*
X5732Y1215D01*
X5721Y1223D01*
X5711Y1235D01*
X5705Y1250D01*
X5702Y1267D01*
Y1283D01*
X5705Y1300D01*
X5711Y1315D01*
X5721Y1327D01*
X5732Y1335D01*
X5744Y1338D01*
X5756Y1335D01*
X5767Y1327D01*
X5777Y1315D01*
X5783Y1300D01*
X5786Y1283D01*
Y1267D01*
X5783Y1250D01*
X5777Y1235D01*
X5767Y1223D01*
X5756Y1215D01*
X5744Y1213D01*
G01X5828D02*
Y1338D01*
X5868Y1233D01*
X5908Y1338D01*
Y1213D01*
G01X3039Y962D02*
X3078Y1088D01*
X3117Y962D01*
G01X3103Y1006D02*
X3053D01*
G01X3171Y1088D02*
Y962D01*
X3233D01*
G01X3295Y1088D02*
Y962D01*
X3357D01*
G01X3540Y1088D02*
Y998D01*
X3546Y979D01*
X3558Y967D01*
X3574Y962D01*
X3590Y967D01*
X3602Y979D01*
X3608Y998D01*
Y1088D01*
G01X3662Y962D02*
Y1088D01*
X3734Y962D01*
Y1088D01*
G01X3803D02*
X3841D01*
G01X3822D02*
Y962D01*
G01X3803D02*
X3841D01*
G01X3946Y1088D02*
Y962D01*
G01X3910Y1088D02*
X3982D01*
G01X4037Y979D02*
X4050Y969D01*
X4064Y962D01*
X4076D01*
X4089Y969D01*
X4098Y979D01*
X4103Y994D01*
X4099Y1008D01*
X4092Y1021D01*
X4078Y1029D01*
X4059Y1033D01*
X4048Y1042D01*
X4044Y1056D01*
X4047Y1071D01*
X4054Y1081D01*
X4065Y1088D01*
X4076D01*
X4087Y1083D01*
X4096Y1073D01*
G01X4279Y962D02*
X4318Y1088D01*
X4357Y962D01*
G01X4343Y1006D02*
X4293D01*
G01X4411Y962D02*
Y1088D01*
X4450D01*
X4462Y1081D01*
X4470Y1073D01*
X4473Y1056D01*
X4470Y1040D01*
X4461Y1029D01*
X4450Y1023D01*
X4411D01*
G01X4450D02*
X4473Y962D01*
G01X4597D02*
X4535D01*
Y1088D01*
X4597D01*
G01X4572Y1027D02*
X4535D01*
G01X4795Y1088D02*
X4833D01*
G01X4814D02*
Y962D01*
G01X4795D02*
X4833D01*
G01X4902D02*
Y1088D01*
X4974Y962D01*
Y1088D01*
G01X5146Y962D02*
Y1088D01*
X5186Y983D01*
X5226Y1088D01*
Y962D01*
G01X5291Y1088D02*
X5329D01*
G01X5310D02*
Y962D01*
G01X5291D02*
X5329D01*
G01X5403Y1088D02*
Y962D01*
X5465D01*
G01X5525Y979D02*
X5538Y969D01*
X5552Y962D01*
X5564D01*
X5577Y969D01*
X5586Y979D01*
X5591Y994D01*
X5587Y1008D01*
X5580Y1021D01*
X5566Y1029D01*
X5547Y1033D01*
X5536Y1042D01*
X5532Y1056D01*
X5535Y1071D01*
X5542Y1081D01*
X5553Y1088D01*
X5564D01*
X5575Y1083D01*
X5584Y1073D01*
G01X3526Y729D02*
X3538Y719D01*
X3552Y712D01*
X3565D01*
X3577Y719D01*
X3586Y729D01*
X3591Y744D01*
X3588Y758D01*
X3580Y771D01*
X3566Y779D01*
X3548Y783D01*
X3537Y792D01*
X3532Y806D01*
X3535Y821D01*
X3543Y831D01*
X3554Y838D01*
X3565D01*
X3576Y833D01*
X3585Y823D01*
G01X3664Y838D02*
X3701D01*
G01X3682D02*
Y712D01*
G01X3664D02*
X3701D01*
G01X3777Y838D02*
X3836D01*
X3777Y712D01*
X3836D01*
G01X3962D02*
X3900D01*
Y838D01*
X3962D01*
G01X3937Y777D02*
X3900D01*
G01X3558Y462D02*
Y588D01*
X3540Y562D01*
G01Y462D02*
X3577D01*
G01X3653Y515D02*
X3664Y529D01*
X3673Y538D01*
X3686Y542D01*
X3696Y538D01*
X3704Y529D01*
X3710Y517D01*
X3712Y502D01*
X3710Y490D01*
X3704Y477D01*
X3695Y467D01*
X3684Y462D01*
X3672Y467D01*
X3661Y479D01*
X3655Y498D01*
X3653Y519D01*
X3656Y546D01*
X3661Y560D01*
X3669Y575D01*
X3679Y585D01*
X3690Y588D01*
X3701Y583D01*
X3709Y573D01*
G01X3806Y458D02*
X3803Y460D01*
Y465D01*
X3806Y467D01*
X3810Y465D01*
Y460D01*
X3806Y458D01*
G01X3930Y588D02*
X3918Y583D01*
X3909Y573D01*
X3903Y560D01*
X3898Y544D01*
X3896Y525D01*
X3898Y506D01*
X3903Y490D01*
X3909Y477D01*
X3918Y467D01*
X3930Y462D01*
X3943Y467D01*
X3952Y477D01*
X3958Y490D01*
X3963Y506D01*
X3965Y525D01*
X3963Y544D01*
X3958Y560D01*
X3952Y573D01*
X3943Y583D01*
X3930Y588D01*
G01X4690Y900D02*
Y400D01*
G01X4984Y712D02*
Y838D01*
X5022D01*
X5034Y831D01*
X5043Y817D01*
X5046Y800D01*
X5043Y783D01*
X5036Y771D01*
X5022Y765D01*
X4984D01*
G01X5108Y838D02*
Y712D01*
X5171D01*
G01X5225D02*
X5264Y838D01*
X5302Y712D01*
G01X5288Y756D02*
X5239D01*
G01X5388Y838D02*
Y712D01*
G01X5352Y838D02*
X5423D01*
G01X5542Y712D02*
X5480D01*
Y838D01*
X5542D01*
G01X5518Y777D02*
X5480D01*
G01X5601Y712D02*
Y838D01*
X5632D01*
X5645Y831D01*
X5654Y823D01*
X5662Y810D01*
X5668Y796D01*
X5670Y775D01*
X5668Y754D01*
X5662Y740D01*
X5654Y727D01*
X5645Y719D01*
X5632Y712D01*
X5601D01*
G01X4984Y462D02*
Y588D01*
X5022D01*
X5034Y581D01*
X5043Y567D01*
X5046Y550D01*
X5043Y533D01*
X5036Y521D01*
X5022Y515D01*
X4984D01*
G01X5108Y588D02*
Y462D01*
X5171D01*
G01X5225D02*
X5264Y588D01*
X5302Y462D01*
G01X5288Y506D02*
X5239D01*
G01X5388Y588D02*
Y462D01*
G01X5352Y588D02*
X5423D01*
G01X5542Y462D02*
X5480D01*
Y588D01*
X5542D01*
G01X5518Y527D02*
X5480D01*
G01X5601Y462D02*
Y588D01*
X5632D01*
X5645Y581D01*
X5654Y573D01*
X5662Y560D01*
X5668Y546D01*
X5670Y525D01*
X5668Y504D01*
X5662Y490D01*
X5654Y477D01*
X5645Y469D01*
X5632Y462D01*
X5601D01*
G01X6224Y712D02*
X6212Y715D01*
X6201Y723D01*
X6192Y735D01*
X6186Y750D01*
X6183Y767D01*
Y783D01*
X6186Y800D01*
X6192Y815D01*
X6201Y827D01*
X6212Y835D01*
X6224Y838D01*
X6237Y835D01*
X6248Y827D01*
X6257Y815D01*
X6263Y800D01*
X6266Y783D01*
Y767D01*
X6263Y750D01*
X6257Y735D01*
X6248Y723D01*
X6237Y715D01*
X6224Y712D01*
G01X6237Y746D02*
X6256Y712D01*
G01X6349Y838D02*
Y712D01*
G01X6313Y838D02*
X6384D01*
G01X6472Y712D02*
Y769D01*
X6442Y838D01*
G01X6504D02*
X6472Y769D01*
G01X5961Y900D02*
Y400D01*
G01X6286Y462D02*
Y588D01*
X6268Y562D01*
G01Y462D02*
X6305D01*
G01X6410D02*
X6421Y465D01*
X6434Y471D01*
X6442Y481D01*
X6445Y496D01*
X6442Y510D01*
X6432Y523D01*
X6418Y529D01*
X6403D01*
X6393Y533D01*
X6386Y544D01*
X6383Y558D01*
X6387Y573D01*
X6398Y583D01*
X6410Y588D01*
X6423Y583D01*
X6434Y573D01*
X6438Y558D01*
X6435Y544D01*
X6428Y533D01*
X6418Y529D01*
X6403D01*
X6389Y523D01*
X6380Y510D01*
X6376Y496D01*
X6380Y481D01*
X6387Y471D01*
X6400Y465D01*
X6410Y462D01*
M02*
