G04 ================== begin FILE IDENTIFICATION RECORD ==================*
G04 Layout Name:  E:/FACULTATE/ANUL 3/P1/ALLEGRO/LAYOUT_P1_ultimul.brd*
G04 Film Name:    SSTOP*
G04 File Format:  Gerber RS274X*
G04 File Origin:  Cadence Allegro 16.6-2015-S059*
G04 Origin Date:  Tue Jan 16 17:33:14 2024*
G04 *
G04 Layer:  REF DES/SILKSCREEN_TOP*
G04 Layer:  PACKAGE GEOMETRY/SILKSCREEN_TOP*
G04 Layer:  BOARD GEOMETRY/SILKSCREEN_TOP*
G04 *
G04 Offset:    (0.00 0.00)*
G04 Mirror:    No*
G04 Mode:      Positive*
G04 Rotation:  0*
G04 FullContactRelief:  No*
G04 UndefLineWidth:     10.00*
G04 ================== end FILE IDENTIFICATION RECORD ====================*
%FSLAX23Y23*MOIN*%
%IR0*IPPOS*OFA0.00000B0.00000*MIA0B0*SFA1.00000B1.00000*%
%ADD10C,.00079*%
%ADD11C,.01*%
%ADD12C,.00591*%
%ADD13C,.00984*%
%ADD14C,.00787*%
G75*
%LPD*%
G75*
G54D10*
G01X191Y944D02*
X192Y943D01*
X193Y942D01*
X194Y942D01*
X195Y942D01*
X196Y943D01*
X197Y944D01*
X197Y945D01*
Y952D01*
G01X202Y944D02*
X203Y943D01*
X204Y942D01*
X206Y942D01*
X207Y942D01*
X209Y943D01*
X209Y944D01*
X210Y946D01*
X209Y947D01*
X208Y948D01*
X207Y948D01*
X206Y949D01*
X205Y948D01*
X203Y948D01*
X204Y952D01*
X208D01*
G01X391Y1244D02*
X392Y1243D01*
X393Y1242D01*
X394Y1242D01*
X395Y1242D01*
X396Y1243D01*
X397Y1244D01*
X397Y1245D01*
Y1252D01*
G01X402Y1244D02*
X403Y1243D01*
X405Y1242D01*
X406Y1242D01*
X407Y1242D01*
X409Y1243D01*
X410Y1244D01*
X410Y1245D01*
X409Y1246D01*
X408Y1247D01*
X407Y1247D01*
X406D01*
G01X407D02*
X408Y1248D01*
X409Y1249D01*
X409Y1250D01*
X409Y1251D01*
X408Y1251D01*
X407Y1252D01*
X405Y1252D01*
X404Y1251D01*
G01X1391Y944D02*
X1392Y943D01*
X1393Y942D01*
X1394Y942D01*
X1395Y942D01*
X1396Y943D01*
X1397Y944D01*
X1397Y945D01*
Y952D01*
G01X1408Y942D02*
Y952D01*
X1402Y945D01*
X1410D01*
G54D11*
G01X115Y445D02*
Y380D01*
X116D01*
X285D01*
Y445D01*
G01Y555D02*
Y620D01*
X115D01*
Y605D01*
Y555D01*
G01X319Y900D02*
X314Y901D01*
X310Y904D01*
X306Y909D01*
X303Y915D01*
X302Y922D01*
Y928D01*
X303Y935D01*
X306Y941D01*
X310Y946D01*
X314Y949D01*
X319Y950D01*
X324Y949D01*
X328Y946D01*
X332Y941D01*
X335Y935D01*
X336Y928D01*
Y922D01*
X335Y915D01*
X332Y909D01*
X328Y904D01*
X324Y901D01*
X319Y900D01*
G01X324Y913D02*
X332Y900D01*
G01X370D02*
Y950D01*
X362Y940D01*
G01Y900D02*
X378D01*
G01X543Y975D02*
X538Y976D01*
X534Y979D01*
X530Y984D01*
X527Y990D01*
X526Y997D01*
Y1003D01*
X527Y1010D01*
X530Y1016D01*
X534Y1021D01*
X538Y1024D01*
X543Y1025D01*
X548Y1024D01*
X552Y1021D01*
X556Y1016D01*
X559Y1010D01*
X560Y1003D01*
Y997D01*
X559Y990D01*
X556Y984D01*
X552Y979D01*
X548Y976D01*
X543Y975D01*
G01X548Y988D02*
X556Y975D01*
G01X582Y1017D02*
X586Y1022D01*
X590Y1024D01*
X595Y1025D01*
X602Y1023D01*
X606Y1019D01*
X607Y1014D01*
X607Y1009D01*
X604Y1005D01*
X591Y997D01*
X586Y991D01*
X582Y982D01*
X581Y975D01*
X607D01*
G01X1315Y1045D02*
Y980D01*
X1485D01*
Y995D01*
Y1045D01*
G01Y1155D02*
Y1220D01*
X1484D01*
X1315D01*
Y1155D01*
G54D12*
G01X204Y357D02*
Y397D01*
G01X220D02*
Y357D01*
G01Y377D02*
X204D01*
G01X235Y356D02*
X252Y385D01*
G01X243Y390D02*
Y351D01*
G01X252Y356D02*
X235Y385D01*
G01X231Y371D02*
X255D01*
G01X125Y1161D02*
X86D01*
Y1170D01*
X88Y1174D01*
X90Y1176D01*
X95Y1176D01*
X101Y1176D01*
X104Y1173D01*
X106Y1170D01*
Y1161D01*
G01Y1170D02*
X125Y1176D01*
G01X92Y1193D02*
X88Y1195D01*
X86Y1198D01*
X86Y1201D01*
X87Y1205D01*
X90Y1207D01*
X94Y1208D01*
X98Y1208D01*
X101Y1206D01*
X108Y1198D01*
X113Y1195D01*
X119Y1193D01*
X125Y1192D01*
Y1208D01*
G01Y1231D02*
X86D01*
X94Y1227D01*
G01X125D02*
Y1236D01*
G01X102Y1500D02*
X112Y1539D01*
X122Y1500D01*
G01X118Y1514D02*
X106D01*
G01X134Y1500D02*
Y1539D01*
X152Y1500D01*
Y1539D01*
G01X177Y1520D02*
X185D01*
Y1508D01*
X183Y1504D01*
X180Y1501D01*
X176Y1500D01*
X172Y1501D01*
X169Y1504D01*
X167Y1508D01*
X165Y1512D01*
X165Y1518D01*
Y1522D01*
X165Y1526D01*
X167Y1531D01*
X169Y1535D01*
X172Y1537D01*
X175Y1539D01*
X178D01*
X181Y1538D01*
X183Y1535D01*
G01X196Y1500D02*
X206Y1539D01*
X216Y1500D01*
G01X213Y1514D02*
X200D01*
G01X229Y1500D02*
Y1539D01*
X247Y1500D01*
Y1539D01*
G01X293D02*
Y1500D01*
X309D01*
G01X322D02*
X332Y1539D01*
X342Y1500D01*
G01X339Y1514D02*
X326D01*
G01X354Y1539D02*
X364Y1500D01*
X374Y1539D01*
G01X390D02*
X400D01*
G01X395D02*
Y1500D01*
G01X390D02*
X400D01*
G01X418D02*
Y1539D01*
X436Y1500D01*
Y1539D01*
G01X453D02*
X463D01*
G01X458D02*
Y1500D01*
G01X453D02*
X463D01*
G01X480D02*
X490Y1539D01*
X500Y1500D01*
G01X496Y1514D02*
X483D01*
G01X589Y1500D02*
Y1539D01*
X574Y1511D01*
X594D01*
G01X607Y1508D02*
X609Y1503D01*
X612Y1501D01*
X616Y1500D01*
X619Y1501D01*
X622Y1504D01*
X624Y1508D01*
X625Y1512D01*
X624Y1516D01*
X621Y1520D01*
X618Y1521D01*
X615D01*
G01X618D02*
X621Y1523D01*
X623Y1526D01*
X624Y1530D01*
X623Y1534D01*
X621Y1537D01*
X617Y1539D01*
X614Y1539D01*
X610Y1536D01*
G01X638Y1508D02*
X641Y1503D01*
X644Y1501D01*
X648Y1500D01*
X651Y1501D01*
X654Y1504D01*
X656Y1508D01*
X656Y1512D01*
X655Y1516D01*
X653Y1520D01*
X650Y1521D01*
X646D01*
G01X650D02*
X652Y1523D01*
X654Y1526D01*
X655Y1530D01*
X654Y1534D01*
X652Y1537D01*
X649Y1539D01*
X645Y1539D01*
X642Y1536D01*
G01X669Y1500D02*
X679Y1539D01*
X688Y1500D01*
G01X685Y1514D02*
X672D01*
G01X793Y336D02*
X791Y338D01*
X788Y339D01*
X785D01*
X781Y337D01*
X778Y334D01*
X776Y330D01*
X775Y324D01*
X774Y318D01*
X775Y312D01*
X776Y308D01*
X779Y304D01*
X781Y301D01*
X784Y300D01*
X787D01*
X790Y301D01*
X792Y303D01*
X794Y306D01*
G01X807D02*
X809Y303D01*
X812Y301D01*
X816Y300D01*
X819Y301D01*
X822Y304D01*
X824Y309D01*
X824Y314D01*
X824Y319D01*
X822Y322D01*
X819Y325D01*
X816Y326D01*
X813Y325D01*
X810Y322D01*
X811Y339D01*
X822D01*
G01X804Y1500D02*
Y1539D01*
X813D01*
X817Y1537D01*
X819Y1533D01*
X820Y1528D01*
X819Y1522D01*
X817Y1518D01*
X813Y1516D01*
X804D01*
G01X835Y1500D02*
Y1539D01*
X843D01*
X846Y1537D01*
X848Y1535D01*
X850Y1531D01*
X852Y1526D01*
X852Y1520D01*
X852Y1513D01*
X850Y1509D01*
X848Y1505D01*
X846Y1502D01*
X843Y1500D01*
X835D01*
G01X883Y1536D02*
X881Y1538D01*
X878Y1539D01*
X875D01*
X872Y1537D01*
X869Y1534D01*
X867Y1530D01*
X865Y1524D01*
X865Y1518D01*
X866Y1512D01*
X867Y1508D01*
X869Y1504D01*
X872Y1501D01*
X875Y1500D01*
X878D01*
X880Y1501D01*
X883Y1503D01*
X885Y1506D01*
G01X914Y1500D02*
X898D01*
Y1539D01*
X914D01*
G01X908Y1520D02*
X898D01*
G01X965Y1539D02*
X974D01*
G01X969D02*
Y1500D01*
G01X965D02*
X974D01*
G01X1025Y1533D02*
X1027Y1537D01*
X1030Y1539D01*
X1033Y1539D01*
X1037Y1538D01*
X1040Y1535D01*
X1041Y1531D01*
X1040Y1527D01*
X1039Y1524D01*
X1031Y1517D01*
X1027Y1512D01*
X1025Y1506D01*
X1024Y1500D01*
X1041D01*
G01X1064Y1539D02*
X1061Y1538D01*
X1058Y1535D01*
X1057Y1531D01*
X1055Y1526D01*
X1055Y1520D01*
X1055Y1514D01*
X1057Y1509D01*
X1058Y1505D01*
X1061Y1501D01*
X1064Y1500D01*
X1067Y1501D01*
X1069Y1505D01*
X1071Y1509D01*
X1072Y1514D01*
X1072Y1520D01*
X1072Y1526D01*
X1071Y1531D01*
X1069Y1535D01*
X1067Y1538D01*
X1064Y1539D01*
G01X1088Y1533D02*
X1090Y1537D01*
X1093Y1539D01*
X1096Y1539D01*
X1100Y1538D01*
X1103Y1535D01*
X1103Y1531D01*
X1103Y1527D01*
X1102Y1524D01*
X1094Y1517D01*
X1090Y1512D01*
X1088Y1506D01*
X1087Y1500D01*
X1103D01*
G01X1118Y1508D02*
X1120Y1503D01*
X1124Y1501D01*
X1127Y1500D01*
X1130Y1501D01*
X1133Y1504D01*
X1135Y1508D01*
X1136Y1512D01*
X1135Y1516D01*
X1132Y1520D01*
X1129Y1521D01*
X1126D01*
G01X1129D02*
X1132Y1523D01*
X1134Y1526D01*
X1135Y1530D01*
X1134Y1534D01*
X1132Y1537D01*
X1128Y1539D01*
X1125Y1539D01*
X1121Y1536D01*
G01X1153Y1513D02*
X1163D01*
G01X1182Y1533D02*
X1185Y1537D01*
X1187Y1539D01*
X1190Y1539D01*
X1194Y1538D01*
X1197Y1535D01*
X1198Y1531D01*
X1198Y1527D01*
X1196Y1524D01*
X1188Y1517D01*
X1185Y1512D01*
X1182Y1506D01*
X1181Y1500D01*
X1198D01*
G01X1221Y1539D02*
X1218Y1538D01*
X1216Y1535D01*
X1214Y1531D01*
X1213Y1526D01*
X1213Y1520D01*
X1213Y1514D01*
X1214Y1509D01*
X1216Y1505D01*
X1218Y1501D01*
X1221Y1500D01*
X1224Y1501D01*
X1227Y1505D01*
X1228Y1509D01*
X1229Y1514D01*
X1230Y1520D01*
X1229Y1526D01*
X1228Y1531D01*
X1227Y1535D01*
X1224Y1538D01*
X1221Y1539D01*
G01X1245Y1533D02*
X1248Y1537D01*
X1250Y1539D01*
X1253Y1539D01*
X1257Y1538D01*
X1260Y1535D01*
X1261Y1531D01*
X1261Y1527D01*
X1259Y1524D01*
X1251Y1517D01*
X1248Y1512D01*
X1245Y1506D01*
X1244Y1500D01*
X1261D01*
G01X1289D02*
Y1539D01*
X1274Y1511D01*
X1294D01*
G01X1300Y239D02*
X1339D01*
Y230D01*
X1337Y226D01*
X1335Y224D01*
X1330Y224D01*
X1324Y224D01*
X1321Y227D01*
X1319Y230D01*
Y239D01*
G01Y230D02*
X1300Y224D01*
G01Y200D02*
X1339D01*
X1332Y205D01*
G01X1300D02*
Y195D01*
G01X1339Y169D02*
X1338Y172D01*
X1335Y174D01*
X1331Y176D01*
X1326Y177D01*
X1320Y177D01*
X1314Y177D01*
X1309Y176D01*
X1305Y174D01*
X1301Y172D01*
X1300Y169D01*
X1301Y165D01*
X1305Y163D01*
X1309Y161D01*
X1314Y160D01*
X1320Y160D01*
X1326Y160D01*
X1331Y161D01*
X1335Y163D01*
X1338Y165D01*
X1339Y169D01*
G01X1300Y361D02*
X1261D01*
Y370D01*
X1263Y374D01*
X1265Y376D01*
X1270Y376D01*
X1276Y376D01*
X1279Y373D01*
X1281Y370D01*
Y361D01*
G01Y370D02*
X1300Y376D01*
G01Y400D02*
X1261D01*
X1268Y395D01*
G01X1300D02*
Y405D01*
G01X1267Y424D02*
X1263Y426D01*
X1261Y429D01*
X1261Y432D01*
X1262Y436D01*
X1265Y439D01*
X1269Y440D01*
X1273Y439D01*
X1276Y438D01*
X1283Y430D01*
X1288Y426D01*
X1294Y424D01*
X1300Y423D01*
Y440D01*
G01X1404Y1557D02*
Y1597D01*
G01X1420D02*
Y1557D01*
G01Y1577D02*
X1404D01*
G01X1435Y1556D02*
X1452Y1585D01*
G01X1443Y1590D02*
Y1551D01*
G01X1452Y1556D02*
X1435Y1585D01*
G01X1431Y1571D02*
X1455D01*
G54D13*
G01X826Y553D02*
G03I-5J0D01*
G01Y953D02*
G03I-5J0D01*
G01Y1353D02*
G03I-5J0D01*
G54D14*
G01X338Y200D02*
G03I-138J0D01*
G01X147Y1200D02*
X103D01*
G01X378Y200D02*
X422D01*
G01X400Y522D02*
Y478D01*
G01X300Y1078D02*
Y1122D01*
G01X228Y1350D02*
X272D01*
G01X378Y1400D02*
X422D01*
G01X600Y222D02*
Y178D01*
G01X622Y400D02*
X578D01*
G01X700Y678D02*
Y722D01*
G01X600Y622D02*
Y578D01*
G01X678Y900D02*
X722D01*
G01X678Y1100D02*
X722D01*
G01X1130Y453D02*
Y370D01*
X935D01*
X870Y435D01*
Y453D01*
G01X1130Y547D02*
Y630D01*
X935D01*
X870Y565D01*
Y547D01*
G01X1130Y853D02*
Y770D01*
X935D01*
X870Y835D01*
Y853D01*
G01X1130Y947D02*
Y1030D01*
X935D01*
X870Y965D01*
Y947D01*
G01X1130Y1253D02*
Y1170D01*
X935D01*
X870Y1235D01*
Y1253D01*
G01X1130Y1347D02*
Y1430D01*
X935D01*
X870Y1365D01*
Y1347D01*
G01X1278Y200D02*
X1322D01*
G01X1422Y300D02*
X1378D01*
G01X1322Y400D02*
X1278D01*
G01X1400Y678D02*
Y722D01*
G01X1300Y578D02*
Y622D01*
G01X1400Y778D02*
Y822D01*
G01X1538Y1400D02*
G03I-138J0D01*
M02*
