G04 ================== begin FILE IDENTIFICATION RECORD ==================*
G04 Layout Name:  E:/FACULTATE/ANUL 3/P1/ALLEGRO/LAYOUT_P1_ultimul.brd*
G04 Film Name:    TOP*
G04 File Format:  Gerber RS274X*
G04 File Origin:  Cadence Allegro 16.6-2015-S059*
G04 Origin Date:  Tue Jan 16 17:33:14 2024*
G04 *
G04 Layer:  ETCH/TOP*
G04 Layer:  PIN/TOP*
G04 Layer:  VIA CLASS/TOP*
G04 *
G04 Offset:    (0.00 0.00)*
G04 Mirror:    No*
G04 Mode:      Positive*
G04 Rotation:  0*
G04 FullContactRelief:  No*
G04 UndefLineWidth:     10.00*
G04 ================== end FILE IDENTIFICATION RECORD ====================*
%FSLAX23Y23*MOIN*%
%IR0*IPPOS*OFA0.00000B0.00000*MIA0B0*SFA1.00000B1.00000*%
%ADD11R,.1X.06*%
%ADD10C,.04*%
%ADD14C,.024*%
%ADD12R,.12008X.07087*%
%ADD19R,.13583X.06496*%
%ADD17R,.017X.02*%
%ADD18R,.0374X.04331*%
%ADD15R,.04331X.0374*%
%ADD16R,.0374X.05709*%
%ADD13R,.05709X.0374*%
%ADD20C,.02*%
%ADD21C,.016*%
G75*
%LPD*%
G75*
G54D10*
X200Y200D03*
X1400Y1400D03*
G54D20*
G01X400Y239D02*
Y287D01*
X337Y350D01*
X95D01*
X75Y370D01*
Y1080D01*
X95Y1100D01*
X261D01*
G01X275Y525D02*
Y650D01*
X200Y725D01*
Y900D01*
G01X250Y1311D02*
Y1250D01*
X239Y1239D01*
X125D01*
G01X400Y1200D02*
X325D01*
X286Y1161D01*
X125D01*
G01X561Y200D02*
Y210D01*
X531Y239D01*
X521D01*
X494Y267D01*
Y281D01*
X475Y300D01*
G01X303Y447D02*
X389Y361D01*
X600D01*
G01X575Y100D02*
X514Y161D01*
X400D01*
G01X561Y600D02*
X523D01*
X500Y623D01*
Y650D01*
G01X438Y865D02*
Y840D01*
X435Y837D01*
Y700D01*
G01D02*
X661D01*
G01X365D02*
Y547D01*
X361Y544D01*
Y500D01*
G01D02*
X336Y525D01*
X275D01*
G01X439Y500D02*
Y490D01*
X410Y461D01*
X403D01*
X389Y447D01*
X303D01*
G01D02*
X275Y475D01*
G01X339Y1100D02*
Y890D01*
X363Y866D01*
Y865D01*
G01D02*
Y787D01*
G01X462Y1035D02*
Y1034D01*
X400Y972D01*
Y935D01*
G01X550Y1125D02*
X500Y1075D01*
Y965D01*
G01X462Y1035D02*
Y1088D01*
X400Y1150D01*
Y1200D01*
G01X700Y1061D02*
X690D01*
X661Y1090D01*
Y1097D01*
X647Y1111D01*
Y1113D01*
X501Y1259D01*
X390D01*
X260Y1389D01*
X250D01*
G01X700Y1139D02*
X690D01*
X661Y1169D01*
Y1179D01*
X479Y1361D01*
X400D01*
G01X600Y1365D02*
X566D01*
X492Y1439D01*
X400D01*
G01X800Y175D02*
X765Y140D01*
Y100D01*
G01X835Y266D02*
X717Y147D01*
X611D01*
X597Y161D01*
X590D01*
X561Y190D01*
Y200D01*
G01X1122Y500D02*
X1087D01*
X1044Y457D01*
Y421D01*
X1022Y400D01*
X725D01*
X686Y361D01*
X610D01*
G01X639Y200D02*
Y321D01*
X639Y331D01*
X610Y361D01*
G01X600D02*
X610D01*
G01X765Y300D02*
X700D01*
G01X561Y600D02*
Y479D01*
X561Y469D01*
X590Y439D01*
X600D01*
G01X878Y500D02*
X843D01*
X782Y439D01*
X600D01*
G01X639Y600D02*
Y610D01*
X669Y639D01*
X681D01*
X703Y661D01*
X710D01*
X739Y690D01*
Y700D01*
G01X537Y1035D02*
Y787D01*
G01X750Y1000D02*
Y989D01*
X700Y939D01*
G01Y1061D02*
Y1021D01*
X625Y946D01*
Y895D01*
X645Y875D01*
X686D01*
X700Y861D01*
G01Y1139D02*
X761D01*
X800Y1100D01*
G01X600Y1365D02*
Y1323D01*
X623Y1300D01*
X650D01*
G01X1325Y1125D02*
X1323D01*
X1258Y1061D01*
X700D01*
G01X1122Y1300D02*
X1087D01*
X1044Y1343D01*
Y1379D01*
X987Y1435D01*
X600D01*
G01X878Y1300D02*
X843D01*
X778Y1365D01*
X600D01*
G01X835Y266D02*
Y190D01*
X836Y190D01*
Y160D01*
X835Y160D01*
Y100D01*
G01X950D02*
X1065D01*
G01X835Y300D02*
Y266D01*
G01X1065Y300D02*
Y215D01*
G01X1200Y300D02*
X1135Y235D01*
Y100D01*
G01X1300Y361D02*
X1310D01*
X1339Y390D01*
Y397D01*
X1392Y450D01*
X1425D01*
X1445Y430D01*
Y375D01*
X1410Y339D01*
X1400D01*
G01X1200Y300D02*
X1135D01*
G01X1300Y439D02*
X1290D01*
X1261Y410D01*
Y403D01*
X1200Y342D01*
Y300D01*
G01X1300Y239D02*
X1344D01*
X1400Y183D01*
X1438D01*
X1458Y203D01*
Y246D01*
X1444Y261D01*
X1400D01*
G01X1300Y161D02*
X1211D01*
G01X1361Y700D02*
Y690D01*
X1436Y615D01*
Y586D01*
X1377Y527D01*
X1348D01*
X1321Y554D01*
Y582D01*
X1354Y614D01*
X1339Y600D01*
G01X1122Y500D02*
X1205D01*
X1261Y556D01*
Y600D01*
G01D02*
Y786D01*
G01X1122Y900D02*
X1400D01*
G01X1439Y800D02*
Y810D01*
X1400Y849D01*
Y900D01*
G01X1325Y1075D02*
X1280Y1030D01*
Y1008D01*
X1261Y989D01*
G01X1439Y700D02*
Y702D01*
X1390Y752D01*
Y761D01*
X1361Y790D01*
Y800D01*
G01X1122Y1300D02*
X1225D01*
X1275Y1250D01*
X1505D01*
X1525Y1230D01*
Y300D01*
G54D11*
X200Y435D03*
Y565D03*
X1400Y1165D03*
Y1035D03*
G54D21*
G01X275Y525D02*
X235Y565D01*
X200D01*
G01X275Y475D02*
X235Y435D01*
X200D01*
G01X1325Y1075D02*
X1365Y1035D01*
X1400D01*
G01X1325Y1125D02*
X1365Y1165D01*
X1400D01*
G54D12*
X200Y900D03*
X400Y1200D03*
X1400Y900D03*
G54D13*
X125Y1239D03*
Y1161D03*
X400Y161D03*
Y239D03*
X250Y1311D03*
Y1389D03*
X400Y1361D03*
Y1439D03*
X600Y361D03*
Y439D03*
X700Y861D03*
Y939D03*
Y1061D03*
Y1139D03*
X1300Y161D03*
Y239D03*
X1400Y339D03*
Y261D03*
X1300Y361D03*
Y439D03*
G54D14*
X475Y300D03*
X500Y650D03*
X363Y787D03*
X575Y100D03*
X800Y175D03*
X700Y300D03*
X537Y787D03*
X750Y1000D03*
X800Y1100D03*
X650Y1300D03*
X550Y1125D03*
X950Y100D03*
X1065Y215D03*
X1200Y300D03*
X1211Y161D03*
X1261Y989D03*
Y786D03*
X1525Y300D03*
G54D15*
X435Y700D03*
X365D03*
X765Y100D03*
Y300D03*
X835Y100D03*
X1065D03*
X835Y300D03*
X1065D03*
X1135Y100D03*
Y300D03*
G54D16*
X361Y500D03*
X439D03*
X339Y1100D03*
X261D03*
X561Y200D03*
X639D03*
X739Y700D03*
X661D03*
X561Y600D03*
X639D03*
X1361Y700D03*
X1339Y600D03*
X1261D03*
X1361Y800D03*
X1439Y700D03*
Y800D03*
G54D17*
X438Y865D03*
X363D03*
X400Y935D03*
X500Y965D03*
X462Y1035D03*
X537D03*
G54D18*
X600Y1435D03*
Y1365D03*
G54D19*
X1122Y500D03*
X878D03*
X1122Y900D03*
X878D03*
X1122Y1300D03*
X878D03*
M02*
